<svg xmlns="http://www.w3.org/2000/svg" xmlns:xlink="http://www.w3.org/1999/xlink" width="1024" zoomAndPan="magnify" viewBox="0 0 768 767.999994" height="1024" preserveAspectRatio="xMidYMid meet" version="1.0"><path fill="#ffdb6e" d="M 360.023438 83.835938 C 348.945312 90.433594 348.855469 91.074219 353.074219 137.914062 C 355.824219 168.769531 360.296875 178.023438 372.378906 178.023438 C 384.457031 178.023438 385.839844 172.972656 385.839844 130.339844 C 385.839844 93.597656 385.277344 89.121094 379.953125 83.90625 C 372.722656 76.828125 371.820312 76.828125 360.035156 83.835938 Z M 360.023438 83.835938 " fill-opacity="1" fill-rule="nonzero"/><path fill="#ffdb6e" d="M 220.070312 136.277344 C 217.351562 136.855469 214.152344 140.722656 213.140625 144.644531 C 211.257812 151.964844 224.402344 174.09375 250.976562 208.3125 C 261.648438 222.070312 275.542969 224.039062 278.496094 212.238281 C 280.929688 202.417969 280.929688 202.417969 257.453125 169.328125 C 233.78125 136.03125 229.996094 136.277344 220.070312 136.277344 Z M 220.070312 136.277344 " fill-opacity="1" fill-rule="nonzero"/><path fill="#ffdb6e" d="M 549.890625 142.117188 C 535.25 157.832031 491.84375 220.117188 491.84375 225.421875 C 491.84375 233.277344 503.097656 240.457031 509.796875 236.882812 C 516.09375 233.523438 570.527344 162.585938 574.121094 153.0625 C 577.085938 145.207031 570.261719 133.988281 562.519531 133.988281 C 557.457031 133.988281 550.1875 142.117188 549.890625 142.117188 Z M 549.890625 142.117188 " fill-opacity="1" fill-rule="nonzero"/><path fill="#ffdb6e" d="M 341.515625 222.027344 C 296.359375 236.65625 265.074219 263.433594 244.828125 304.792969 C 224.714844 345.871094 221.714844 391.742188 235.4375 448.695312 C 244.683594 487.121094 271.328125 538.648438 291.050781 556.253906 C 296.828125 561.40625 297.414062 564.507812 296.683594 586.128906 C 295.761719 613.332031 299.484375 620.925781 315.449219 624.398438 C 323.5 626.152344 323.863281 626.9375 323.863281 642.359375 C 323.863281 651.304688 325.804688 662.222656 328.234375 666.898438 C 334.425781 678.84375 356.398438 688.707031 379.957031 690.132812 C 398.46875 691.253906 399.714844 690.902344 408.570312 682.046875 C 417.511719 673.105469 427.074219 649.515625 427.074219 636.328125 C 427.074219 631.980469 430.71875 628.421875 439.417969 624.277344 C 458.292969 615.269531 463.6875 605.757812 464.179688 580.515625 C 464.574219 562.003906 465.929688 557.195312 475.476562 540.410156 C 516.972656 467.488281 530.46875 426.714844 530.265625 374.933594 C 529.941406 293.71875 486.703125 239.75 429.566406 221.996094 C 406.011719 214.675781 364.175781 214.703125 341.511719 222.050781 Z M 433.789062 255.738281 C 487.675781 280.398438 513.140625 350.816406 494.746094 424.28125 C 488.851562 447.835938 450.761719 528.019531 437.765625 544.316406 C 430.28125 553.679688 431.699219 552.496094 390.59375 548.246094 C 391.96875 514.390625 393.738281 423.195312 410.507812 390.621094 C 414.546875 382.785156 416.960938 381.359375 426.214844 381.359375 C 456.484375 381.359375 471.714844 348.214844 447.25 335.523438 C 428.980469 326.042969 405.816406 338.171875 389.691406 365.65625 C 382.945312 377.15625 376.855469 380.347656 376.855469 372.390625 C 376.855469 366.199219 360.867188 345.710938 351.609375 340.015625 C 339.265625 332.449219 319.585938 331.84375 311.785156 338.851562 C 304.761719 345.167969 304.339844 356.960938 310.808594 366.21875 C 315.023438 372.246094 317.6875 373.03125 329.734375 371.824219 C 343.492188 370.449219 343.882812 370.644531 349.917969 381.359375 C 366.769531 411.304688 365.050781 439.042969 365.050781 549.085938 L 322.722656 549.085938 L 310.421875 535.902344 C 285.65625 509.324219 264.1875 458.210938 258.296875 411.65625 C 249.960938 345.746094 276.148438 287.773438 326.363281 261 C 349.75 248.542969 362.265625 245.867188 391.988281 247.097656 C 421.035156 248.292969 434.085938 255.710938 433.789062 255.710938 Z M 435.625 580.496094 C 436.3125 581.113281 435.625 585.261719 434.085938 589.753906 L 431.277344 597.886719 L 325.246094 597.886719 L 323.5625 575.445312 L 378.953125 577.414062 C 430.261719 579.230469 436.671875 580.496094 435.625 580.496094 Z M 393.132812 654.105469 C 388.875 664.085938 388.082031 664.519531 377.707031 662.613281 C 360.316406 659.414062 350.5 653.058594 350.5 644.988281 C 350.5 630.171875 352.742188 628.726562 375.75 628.726562 C 397.074219 628.726562 397.625 628.914062 397.625 636.15625 C 397.996094 636.171875 396.820312 645.441406 393.117188 654.117188 Z M 393.132812 654.105469 " fill-opacity="1" fill-rule="nonzero"/><path fill="#ffdb6e" d="M 105.355469 244.378906 C 102.5625 250.570312 102.894531 252.8125 107.324219 257.703125 C 113.921875 264.996094 174.175781 298.933594 180.527344 298.933594 C 188.09375 298.933594 194.339844 287.429688 190.847656 279.863281 C 187.351562 272.296875 124.957031 236.949219 115.175781 236.949219 C 107.75 236.921875 105.667969 244.378906 105.355469 244.378906 Z M 105.355469 244.378906 " fill-opacity="1" fill-rule="nonzero"/><path fill="#ffdb6e" d="M 572.945312 299.746094 C 570.6875 303.390625 570.695312 306.199219 572.945312 309.84375 C 579.484375 320.3125 590.265625 317.664062 630.089844 295.789062 C 673.558594 271.917969 680.859375 264.109375 668.792969 254.363281 C 664.871094 251.191406 660.859375 248.699219 659.675781 248.699219 C 655.839844 248.699219 579.085938 289.84375 572.945312 299.746094 Z M 572.945312 299.746094 " fill-opacity="1" fill-rule="nonzero"/><path fill="#ffdb6e" d="M 81.519531 367.011719 C 74.269531 371.136719 75.066406 383.3125 82.894531 388.398438 C 88.929688 392.304688 147.410156 404.910156 159.46875 404.910156 C 165.359375 404.910156 173.773438 397.339844 173.773438 392.007812 C 173.773438 382.027344 165.640625 378.421875 126.65625 371.132812 C 104.800781 367.050781 86.84375 363.757812 86.84375 363.832031 C 86.84375 363.90625 84.320312 365.414062 81.519531 367.011719 Z M 81.519531 367.011719 " fill-opacity="1" fill-rule="nonzero"/><path fill="#ffdb6e" d="M 585.945312 392.972656 C 580.261719 394.347656 578.296875 397.046875 577.601562 404.335938 C 576.371094 417.277344 581.039062 418.578125 638.25 421.210938 L 685.929688 423.40625 C 691.976562 409.867188 693.765625 408.539062 687.195312 401.8125 C 682.289062 396.789062 676.257812 395.691406 646.242188 394.375 C 600.289062 392.359375 595.15625 390.714844 585.945312 393 Z M 585.945312 392.972656 " fill-opacity="1" fill-rule="nonzero"/><path fill="#ffdb6e" d="M 136.769531 500.921875 C 99.1875 509.089844 91.796875 514.53125 101.085938 527.207031 C 106.050781 533.992188 115.175781 533.777344 156.121094 525.910156 C 188.371094 519.71875 198.964844 513.421875 195.035156 502.808594 C 190.765625 491.257812 182.480469 490.988281 136.761719 500.921875 Z M 136.769531 500.921875 " fill-opacity="1" fill-rule="nonzero"/><path fill="#ffdb6e" d="M 552.953125 524.683594 C 555.984375 529.429688 629.835938 555.515625 637.128906 554.417969 C 640.1875 553.957031 644.613281 550.769531 646.855469 547.398438 C 653.609375 537.265625 644.417969 530.203125 607.121094 516.964844 C 570.378906 503.894531 562.058594 502.703125 555.230469 509.535156 C 557.046875 509.535156 546.257812 514.199219 552.953125 524.683594 Z M 552.953125 524.683594 " fill-opacity="1" fill-rule="nonzero"/><path stroke-linecap="butt" transform="matrix(0.749189, 0.0348784, -0.0348784, 0.749189, 352.826088, 232.72892)" fill="none" stroke-linejoin="miter" d="M 0.00192749 1.998929 L 83.404741 2.000528 " stroke="#ffdb6e" stroke-width="4" stroke-opacity="1" stroke-miterlimit="4"/></svg>