<svg xmlns="http://www.w3.org/2000/svg" xmlns:xlink="http://www.w3.org/1999/xlink" width="500" zoomAndPan="magnify" viewBox="0 0 375 374.999991" height="500" preserveAspectRatio="xMidYMid meet" version="1.0"><defs><g/><clipPath id="38e21a27c8"><path d="M 187.5 0 C 83.945312 0 0 83.945312 0 187.5 C 0 291.054688 83.945312 375 187.5 375 C 291.054688 375 375 291.054688 375 187.5 C 375 83.945312 291.054688 0 187.5 0 Z M 187.5 0 " clip-rule="nonzero"/></clipPath></defs><g clip-path="url(#38e21a27c8)"><rect x="-37.5" width="450" fill="#25282a" y="-37.499999" height="449.999989" fill-opacity="1"/></g><g fill="#ffdb58" fill-opacity="1"><g transform="translate(71.201358, 272.155127)"><g><path d="M 112.015625 -166 L 4.265625 -166 L 4.265625 -0.4375 L 53.765625 -0.4375 L 53.765625 -58.140625 L 112.015625 -58.140625 Z M 62.296875 -107.859375 L 53.765625 -107.859375 L 53.765625 -116.28125 L 62.296875 -116.28125 Z M 62.296875 -107.859375 "/></g></g></g><g fill="#ffdb58" fill-opacity="1"><g transform="translate(187.477672, 272.155127)"><g><path d="M 112.015625 -0.4375 L 112.015625 -166 L 4.265625 -166 L 4.265625 -0.4375 L 53.984375 -0.4375 L 53.984375 -58.140625 L 62.40625 -58.140625 L 62.40625 -0.4375 Z M 62.40625 -116.28125 L 62.40625 -107.859375 L 53.984375 -107.859375 L 53.984375 -116.28125 Z M 62.40625 -116.28125 "/></g></g></g></svg>